<svg width="10" height="8" viewBox="0 0 10 8" fill="none" xmlns="http://www.w3.org/2000/svg">
    <path
        d="M6.09168 6.05705V6.89332C6.09168 6.95205 6.13923 6.99995 6.19831 6.99995H6.88878C6.94752 6.99995 6.99541 6.9524 6.99541 6.89332C6.98702 4.3118 6.98772 6.95275 6.98772 4.36254C6.98772 4.15278 6.84368 3.97728 6.65 3.92554V2.56345C6.65 2.07679 6.25425 1.68104 5.76759 1.68104C5.60922 1.68104 5.47078 1.57371 5.43162 1.42058C5.36799 1.17306 5.1446 1 4.88903 1L3.09869 1.00035C2.84277 1.00035 2.61972 1.17341 2.5561 1.42093C2.51659 1.5744 2.3785 1.68139 2.21978 1.68139C1.73312 1.68139 1.33737 2.07714 1.33737 2.5638V3.92589C1.14368 3.97763 1 4.15278 1 4.36254V6.89332C1 6.95205 1.04755 6.99995 1.10663 6.99995H1.7971C1.85583 6.99995 1.90373 6.9524 1.90373 6.89332V6.05705H6.09168ZM1.21361 5.11033H6.77447V5.8438H1.21361V5.11033ZM6.78217 6.78701H6.30496V6.05738H6.78217V6.78701ZM5.13413 3.90907H2.85395V3.50353C2.85395 3.3046 3.01582 3.14309 3.2144 3.14309H4.77365C4.97258 3.14309 5.13409 3.30496 5.13409 3.50353L5.13413 3.90907ZM2.22012 1.89498C2.47569 1.89498 2.69909 1.72192 2.76271 1.4744C2.80222 1.32093 2.94031 1.21394 3.09868 1.21394H4.88867C5.04704 1.21394 5.18548 1.32127 5.22499 1.4744C5.28862 1.72192 5.51166 1.89498 5.76758 1.89498C6.13641 1.89498 6.43673 2.19529 6.43673 2.56413V3.90939H5.34734V3.50385C5.34734 3.18745 5.09003 2.93014 4.77363 2.93014H3.21438C2.89798 2.93014 2.64067 3.18745 2.64067 3.50385V3.90939L1.55093 3.90904V2.56378C1.55093 2.19494 1.85094 1.89498 2.22012 1.89498ZM1.21361 4.36283C1.21361 4.23102 1.32024 4.1237 1.4517 4.12265H6.53633C6.66779 4.12405 6.77442 4.23102 6.77442 4.36283V4.89703L1.21356 4.89738L1.21361 4.36283ZM1.69082 6.78701H1.21361V6.05738H1.69082V6.78701Z"
        fill="#383838" stroke="#383838" stroke-width="0.25" />
    <path
        d="M9.63388 4.34442H8.91369V4.01159H9.57514C9.60871 4.01159 9.64052 3.9955 9.6608 3.96858C9.68073 3.94166 9.68702 3.9067 9.67723 3.87419L9.34021 2.75751C9.32658 2.71241 9.28532 2.68164 9.23813 2.68164H8.376C8.32915 2.68164 8.28755 2.71241 8.27392 2.75751L7.9369 3.87419C7.92711 3.90635 7.9334 3.94131 7.95333 3.96858C7.9736 3.9955 8.00507 4.01159 8.03898 4.01159H8.70043V4.34442H7.98059C7.92186 4.34442 7.87396 4.39196 7.87396 4.45105V6.89339C7.87396 6.95213 7.92151 7.00002 7.98059 7.00002H9.63391C9.69265 7.00002 9.74054 6.95248 9.74054 6.89339V4.45105C9.74054 4.39231 9.69262 4.34442 9.63388 4.34442ZM8.45536 2.89497H9.15912L9.43181 3.79838H8.18267L8.45536 2.89497ZM8.80356 4.55769C8.80496 4.55769 8.80601 4.55839 8.80741 4.55839C8.80881 4.55839 8.80985 4.55769 8.81125 4.55769H9.5276V5.19922H8.08755L8.0872 4.55769H8.80356ZM9.52724 6.78676H8.0872V5.4125H9.52724V6.78676Z"
        fill="#383838" stroke="#383838" stroke-width="0.25" />
    <path
        d="M8.71301 4.99256H8.9497C9.00843 4.99256 9.05632 4.94501 9.05632 4.88593C9.05632 4.82719 9.00878 4.7793 8.9497 4.7793H8.71301C8.65428 4.7793 8.60638 4.82684 8.60638 4.88593C8.60638 4.94466 8.65428 4.99256 8.71301 4.99256Z"
        fill="#383838" />
    <path
        d="M9.22418 6.37005C9.28292 6.37005 9.33081 6.3225 9.33081 6.26342V5.93549C9.33081 5.87675 9.28327 5.82886 9.22418 5.82886C9.16545 5.82886 9.11755 5.8764 9.11755 5.93549V6.26342C9.1179 6.3225 9.16545 6.37005 9.22418 6.37005Z"
        fill="#383838" />
</svg>