<svg width="20" height="20" viewBox="0 0 20 20" fill="none" xmlns="http://www.w3.org/2000/svg">
<path d="M16 6.6C16 5.11479 15.3679 3.69041 14.2426 2.6402C13.1174 1.59 11.5913 1 10 1C8.4087 1 6.88258 1.59 5.75736 2.6402C4.63214 3.69041 4 5.11479 4 6.6C4 9.28622 3.3238 11.1835 2.52745 12.4866C1.75616 13.7486 1.37051 14.3797 1.38485 14.5436C1.40095 14.7277 1.43729 14.7925 1.58603 14.9023C1.71841 15 2.34762 15 3.60605 15H16.3939C17.6524 15 18.2816 15 18.414 14.9023C18.5627 14.7925 18.599 14.7277 18.6152 14.5436C18.6295 14.3797 18.2438 13.7486 17.4725 12.4866C16.6762 11.1835 16 9.28622 16 6.6Z" fill="#D9D9FF"/>
<path d="M7 19H13M16 6.6C16 5.11479 15.3679 3.69041 14.2426 2.6402C13.1174 1.59 11.5913 1 10 1C8.4087 1 6.88258 1.59 5.75736 2.6402C4.63214 3.69041 4 5.11479 4 6.6C4 9.28622 3.3238 11.1835 2.52745 12.4866C1.75616 13.7486 1.37051 14.3797 1.38485 14.5436C1.40095 14.7277 1.43729 14.7925 1.58603 14.9023C1.71841 15 2.34762 15 3.60605 15H16.3939C17.6524 15 18.2816 15 18.414 14.9023C18.5627 14.7925 18.599 14.7277 18.6152 14.5436C18.6295 14.3797 18.2438 13.7486 17.4725 12.4866C16.6762 11.1835 16 9.28622 16 6.6Z" stroke="#21209C" stroke-width="1.5" stroke-linecap="round" stroke-linejoin="round"/>
</svg>
