<svg width="20" height="20" viewBox="0 0 20 20" fill="none" xmlns="http://www.w3.org/2000/svg">
<path d="M16.0001 6.6C16.0001 5.11479 15.3679 3.69041 14.2427 2.6402C13.1175 1.59 11.5914 1 10.0001 1C8.40876 1 6.88264 1.59 5.75742 2.6402C4.6322 3.69041 4.00006 5.11479 4.00006 6.6C4.00006 9.28622 3.32386 11.1835 2.52752 12.4866C1.75622 13.7486 1.37057 14.3797 1.38491 14.5436C1.40101 14.7277 1.43735 14.7925 1.58609 14.9023C1.71847 15 2.34769 15 3.60611 15H16.394C17.6524 15 18.2817 15 18.414 14.9023C18.5628 14.7925 18.5991 14.7277 18.6152 14.5436C18.6296 14.3797 18.2439 13.7486 17.4726 12.4866C16.6763 11.1835 16.0001 9.28622 16.0001 6.6Z" fill="#C3DFFF"/>
<path d="M7.00006 19H13.0001M16.0001 6.6C16.0001 5.11479 15.3679 3.69041 14.2427 2.6402C13.1175 1.59 11.5914 1 10.0001 1C8.40876 1 6.88264 1.59 5.75742 2.6402C4.6322 3.69041 4.00006 5.11479 4.00006 6.6C4.00006 9.28622 3.32386 11.1835 2.52752 12.4866C1.75622 13.7486 1.37057 14.3797 1.38491 14.5436C1.40101 14.7277 1.43735 14.7925 1.58609 14.9023C1.71847 15 2.34769 15 3.60611 15H16.394C17.6524 15 18.2817 15 18.414 14.9023C18.5628 14.7925 18.5991 14.7277 18.6152 14.5436C18.6296 14.3797 18.2439 13.7486 17.4726 12.4866C16.6763 11.1835 16.0001 9.28622 16.0001 6.6Z" stroke="#103E75" stroke-width="1.5" stroke-linecap="round" stroke-linejoin="round"/>
</svg>
