<svg width="18" height="14" viewBox="0 0 16 15" fill="none" xmlns="http://www.w3.org/2000/svg">
    <path
        d="M15.9332 7.07788C14.3178 3.32719 11.2789 1 8 1C4.72114 1 1.6822 3.32719 0.0667645 7.07788C0.0227292 7.17878 0 7.28768 0 7.39777C0 7.50786 0.0227292 7.61676 0.0667645 7.71766C1.6822 11.4684 4.72114 13.7955 8 13.7955C11.2789 13.7955 14.3178 11.4684 15.9332 7.71766C15.9773 7.61676 16 7.50786 16 7.39777C16 7.28768 15.9773 7.17878 15.9332 7.07788ZM8 12.1961C5.45689 12.1961 3.06572 10.3647 1.6822 7.39777C3.06572 4.4308 5.45689 2.59944 8 2.59944C10.5431 2.59944 12.9343 4.4308 14.3178 7.39777C12.9343 10.3647 10.5431 12.1961 8 12.1961ZM8 4.19889C7.36732 4.19889 6.74885 4.3865 6.22279 4.73799C5.69674 5.08949 5.28673 5.58909 5.04461 6.17361C4.8025 6.75813 4.73915 7.40132 4.86258 8.02184C4.98601 8.64236 5.29067 9.21235 5.73805 9.65972C6.18542 10.1071 6.75541 10.4118 7.37593 10.5352C7.99645 10.6586 8.63964 10.5953 9.22416 10.3532C9.80868 10.111 10.3083 9.70103 10.6598 9.17498C11.0113 8.64892 11.1989 8.03045 11.1989 7.39777C11.1989 6.54937 10.8619 5.73572 10.262 5.13582C9.66205 4.53591 8.8484 4.19889 8 4.19889ZM8 8.99721C7.68366 8.99721 7.37442 8.90341 7.1114 8.72766C6.84837 8.55191 6.64337 8.30211 6.52231 8.00985C6.40125 7.71759 6.36958 7.396 6.43129 7.08573C6.493 6.77547 6.64534 6.49048 6.86902 6.26679C7.09271 6.04311 7.3777 5.89078 7.68796 5.82906C7.99823 5.76735 8.31982 5.79902 8.61208 5.92008C8.90434 6.04114 9.15414 6.24614 9.32989 6.50917C9.50564 6.77219 9.59944 7.08143 9.59944 7.39777C9.59944 7.82197 9.43093 8.22879 9.13098 8.52875C8.83102 8.8287 8.4242 8.99721 8 8.99721Z"
        fill="#656565" stroke="white" stroke-width="0.5" />
</svg>