<svg width="15" height="18" viewBox="0 0 15 18" fill="none" xmlns="http://www.w3.org/2000/svg">
<path d="M10.9639 0C11.0058 0 11.0477 0 11.092 0C11.1947 1.2694 10.7102 2.21789 10.1213 2.90476C9.54355 3.58688 8.75235 4.24845 7.47267 4.14807C7.38731 2.89685 7.87262 2.01871 8.46068 1.33342C9.00607 0.69477 10.0059 0.126466 10.9639 0Z" fill="black"/>
<path d="M14.8378 13.2123C14.8378 13.2249 14.8378 13.236 14.8378 13.2479C14.4782 14.337 13.9652 15.2705 13.3392 16.1368C12.7677 16.9233 12.0674 17.9816 10.817 17.9816C9.73653 17.9816 9.01884 17.2868 7.91147 17.2679C6.74008 17.2489 6.0959 17.8488 5.0249 17.9998C4.90238 17.9998 4.77987 17.9998 4.65973 17.9998C3.87327 17.886 3.23857 17.2631 2.77618 16.7019C1.41272 15.0437 0.359108 12.9017 0.163086 10.1605C0.163086 9.89178 0.163086 9.62383 0.163086 9.35509C0.246079 7.39329 1.19931 5.79824 2.46634 5.02522C3.13503 4.61421 4.05427 4.26406 5.07785 4.42056C5.51653 4.48854 5.96469 4.63871 6.35753 4.78731C6.72981 4.93037 7.19536 5.1841 7.63641 5.17066C7.93518 5.16196 8.23238 5.00625 8.53352 4.89639C9.41562 4.57785 10.2803 4.21268 11.4201 4.3842C12.7899 4.59129 13.7621 5.1999 14.3628 6.13891C13.2041 6.87636 12.288 7.98768 12.4445 9.88545C12.5836 11.6093 13.5858 12.6179 14.8378 13.2123Z" fill="black"/>
</svg>
