<svg width="8" height="8" viewBox="0 0 8 8" fill="none" xmlns="http://www.w3.org/2000/svg">
    <path
        d="M7.01779 6.39623C7.02699 6.3745 7.02699 6.34894 7.01779 6.32721C7.01242 6.31622 7.0068 6.30548 6.99785 6.29807L6.45263 5.75285C6.41633 5.71655 6.35984 5.71655 6.32354 5.75285C6.28725 5.78915 6.28725 5.84564 6.32354 5.88194L6.71438 6.27277H5.75278V2.36265C5.75278 2.31178 5.71291 2.27165 5.66178 2.27165H1.75369V1.31031L2.14452 1.70115C2.16267 1.7193 2.18644 1.7285 2.20817 1.7285C2.2299 1.7285 2.25546 1.7193 2.27182 1.70115C2.30812 1.66485 2.30812 1.60836 2.27182 1.57206L1.7266 1.02684C1.7266 1.02684 1.70845 1.01227 1.69746 1.0069C1.67573 0.9977 1.65017 0.9977 1.62844 1.0069C1.61745 1.01227 1.60671 1.01789 1.5993 1.02684L1.05408 1.57206C1.01778 1.60836 1.01778 1.66485 1.05408 1.70115C1.09038 1.73745 1.14687 1.73745 1.18317 1.70115L1.574 1.31031V6.36173C1.574 6.4126 1.61388 6.45273 1.665 6.45273H6.71641L6.32558 6.84356C6.28928 6.87986 6.28928 6.93635 6.32558 6.97265C6.34373 6.9908 6.3675 7 6.38923 7C6.41095 7 6.43652 6.9908 6.45287 6.97265L6.9981 6.42743C6.9981 6.42743 7.01267 6.40928 7.01803 6.39829L7.01779 6.39623ZM2.91338 6.27072L5.57072 3.61338V5.23472L4.53295 6.27249H2.91161L2.91338 6.27072ZM1.75364 3.55148L2.85148 2.45364H4.53472L1.75541 5.23295V3.54971L1.75364 3.55148ZM2.59333 2.45364L1.75364 3.29333V2.45364H2.59333ZM1.75364 5.49084L4.7911 2.45364H5.57098V3.35517L2.65517 6.27072H1.75364V5.49084ZM4.7911 6.27072L5.57098 5.49084V6.27072H4.7911ZM5.57072 1.63568C5.57072 1.58481 5.61059 1.54468 5.66171 1.54468H6.20693C6.35775 1.54468 6.47968 1.66636 6.47968 1.81742V2.36265C6.47968 2.41351 6.4398 2.45364 6.38868 2.45364C6.33781 2.45364 6.29768 2.41377 6.29768 2.36265V1.81742C6.29768 1.76656 6.25781 1.72643 6.20669 1.72643H5.66146C5.6106 1.72643 5.57047 1.68655 5.57047 1.63543L5.57072 1.63568ZM4.11677 1.63568C4.11677 1.58481 4.15665 1.54468 4.20777 1.54468H4.93471C4.98557 1.54468 5.0257 1.5866 5.0257 1.63568C5.0257 1.68476 4.98583 1.72668 4.93471 1.72668H4.20777C4.1569 1.72668 4.11677 1.68476 4.11677 1.63568ZM2.66256 1.63568C2.66256 1.58481 2.70244 1.54468 2.75356 1.54468H3.4805C3.53136 1.54468 3.5715 1.5866 3.5715 1.63568C3.5715 1.68476 3.53162 1.72668 3.4805 1.72668H2.75356C2.70269 1.72668 2.66256 1.68476 2.66256 1.63568ZM6.47964 4.54377V5.27071C6.47964 5.32158 6.43772 5.36171 6.38864 5.36171C6.33956 5.36171 6.29764 5.32183 6.29764 5.27071V4.54377C6.29764 4.4929 6.33956 4.45277 6.38864 4.45277C6.43772 4.45277 6.47964 4.49265 6.47964 4.54377ZM6.47964 3.08956V3.8165C6.47964 3.86737 6.43772 3.9075 6.38864 3.9075C6.33956 3.9075 6.29764 3.86762 6.29764 3.8165V3.08956C6.29764 3.03869 6.33956 2.99856 6.38864 2.99856C6.43772 2.99856 6.47964 3.03844 6.47964 3.08956Z"
        fill="#383838" stroke="#383838" stroke-width="0.25" />
</svg>