<svg width="8" height="8" viewBx="0 0 8 8" fill="none" xmlns="http://www.w3.org/2000/svg">
    <path
        d="M6.82471 3.78729C6.81771 3.78729 6.81071 3.78729 6.80371 3.78729C6.79671 3.78729 6.79671 3.78729 6.78971 3.78729C6.57973 3.78729 6.36275 3.78729 6.15277 3.78729C5.64181 3.78729 5.13086 3.78729 4.61991 3.78729C4.02496 3.78729 3.43002 3.78729 2.83507 3.78729C2.39411 3.78729 1.95315 3.78729 1.51219 3.78729C1.51219 3.22035 1.51219 2.6534 1.51219 2.09345C1.51219 2.02345 1.51219 1.95346 1.51219 1.87647C1.51919 1.66649 1.66618 1.46351 1.89016 1.46351C2.07914 1.46351 2.21913 1.58949 2.26112 1.75748C2.24712 1.75748 2.24013 1.75748 2.22613 1.75748C2.18413 1.75748 2.14913 1.75048 2.12114 1.78548C2.09314 1.81347 2.07214 1.84847 2.05114 1.87647C2.01615 1.92546 1.97415 1.97446 1.93915 2.02345C1.91116 2.05845 1.88316 2.08645 1.87616 2.12844C1.84116 2.26143 1.96715 2.33143 2.07914 2.33143C2.17713 2.33143 2.26812 2.33143 2.36611 2.33143C2.5691 2.33143 2.76508 2.33843 2.96806 2.33143C3.04505 2.33143 3.11505 2.28943 3.14304 2.21244C3.16404 2.14244 3.12904 2.08645 3.08705 2.03745C3.01705 1.95346 2.94706 1.86947 2.88407 1.79248C2.86307 1.76448 2.83507 1.75748 2.80707 1.76448C2.78608 1.76448 2.77208 1.76448 2.75108 1.76448C2.71608 1.44951 2.5061 1.16953 2.20513 1.05754C1.85516 0.924555 1.4702 1.02954 1.24622 1.29552C1.12023 1.44951 1.05023 1.63849 1.05023 1.84147C1.05023 2.43642 1.05023 3.03136 1.05023 3.61931C1.05023 3.6753 1.05023 3.7313 1.05023 3.78729H1.04323C1.02224 3.78729 0.994239 3.78729 0.973241 3.78729C0.826254 3.79429 0.707265 3.92728 0.749261 4.07427C0.791257 4.23525 0.938244 4.24925 1.07123 4.24925C1.09923 4.24925 1.12723 4.24925 1.14822 4.24925C1.22522 4.59922 1.29521 4.94219 1.3722 5.29216C1.4142 5.47414 1.4492 5.65612 1.49119 5.83811C1.54719 6.09008 1.68018 6.31406 1.89716 6.46105C2.01615 6.53804 2.14913 6.58004 2.28212 6.59404C2.26112 6.62903 2.24013 6.65703 2.21913 6.69203C2.19813 6.72703 2.17013 6.76202 2.15613 6.80402C2.13513 6.89501 2.19813 6.965 2.27512 6.986C2.28212 6.993 2.29612 6.993 2.31012 6.993C2.31712 6.993 2.32412 6.993 2.32412 6.993C2.39411 6.993 2.4711 7 2.5341 6.986C2.59709 6.965 2.64609 6.91601 2.69508 6.86701C2.79307 6.78302 2.89107 6.69203 2.98906 6.60804C3.45101 6.60804 3.91297 6.60804 4.36793 6.60804C4.48692 6.60804 4.61291 6.60804 4.7319 6.60804C4.82989 6.69203 4.92088 6.78302 5.01887 6.86701C5.06787 6.90901 5.11686 6.965 5.17986 6.986C5.24285 7.007 5.32684 7 5.38984 6.993C5.39684 6.993 5.40384 6.993 5.40384 6.993C5.41783 6.993 5.42483 6.993 5.43883 6.986C5.51583 6.965 5.57882 6.89501 5.55782 6.80402C5.55082 6.76202 5.52283 6.72703 5.49483 6.69203C5.47383 6.66403 5.45983 6.63603 5.43883 6.60804C5.73281 6.58704 5.99878 6.42605 6.15977 6.17408C6.24376 6.04109 6.27176 5.8941 6.30675 5.74711C6.39075 5.34815 6.47474 4.94919 6.55873 4.55022C6.57973 4.45223 6.60073 4.35424 6.62172 4.25625C6.62872 4.25625 6.63572 4.25625 6.63572 4.25625C6.72672 4.25625 6.82471 4.27025 6.9017 4.22125C7.11868 4.08827 7.02769 3.81529 6.82471 3.78729ZM2.92606 2.15644C2.87007 2.15644 2.81407 2.15644 2.76508 2.15644C2.61109 2.15644 2.45011 2.15644 2.29612 2.15644C2.23313 2.15644 2.17013 2.15644 2.10714 2.15644C2.08614 2.15644 2.05814 2.16344 2.03714 2.15644C2.03714 2.15644 2.03714 2.15644 2.03714 2.14944C2.04414 2.14244 2.05114 2.13544 2.05814 2.12145C2.07914 2.09345 2.10714 2.05845 2.12814 2.03045C2.15613 1.99546 2.18413 1.95346 2.21213 1.91846C2.26112 1.91846 2.30312 1.91846 2.35211 1.91846C2.45011 1.91846 2.5551 1.91846 2.65309 1.91846C2.68808 1.91846 2.73008 1.91846 2.76508 1.91846C2.82807 1.99546 2.89807 2.07245 2.96106 2.15644C2.96106 2.15644 2.96106 2.15644 2.95406 2.15644C2.94706 2.15644 2.93306 2.15644 2.92606 2.15644ZM1.89016 1.16253C2.23313 1.16253 2.5131 1.42151 2.5621 1.75748C2.5201 1.75748 2.4711 1.75748 2.42911 1.75748C2.38711 1.4915 2.17013 1.29552 1.89016 1.29552C1.59618 1.29552 1.3862 1.5335 1.35121 1.81347C1.35121 1.82047 1.34421 1.83447 1.34421 1.84147C1.34421 2.43642 1.34421 3.03136 1.34421 3.61931C1.34421 3.6753 1.34421 3.7313 1.34421 3.78729C1.30221 3.78729 1.26021 3.78729 1.21822 3.78729C1.21822 3.22035 1.21822 2.6534 1.21822 2.09345C1.21822 2.00946 1.21822 1.92546 1.21822 1.84147C1.21822 1.4705 1.51919 1.16253 1.89016 1.16253ZM2.61109 6.72703C2.57609 6.75502 2.5411 6.79702 2.5061 6.81802C2.45711 6.83902 2.38711 6.83202 2.33112 6.82502C2.33112 6.81802 2.33812 6.81102 2.33812 6.81102C2.35911 6.77602 2.38011 6.74802 2.40111 6.71303C2.42211 6.67803 2.44311 6.64303 2.4641 6.60804C2.5551 6.60804 2.64609 6.60804 2.73708 6.60804C2.70208 6.65003 2.65309 6.68503 2.61109 6.72703ZM5.24285 6.82502C5.20085 6.81102 5.15886 6.75502 5.13086 6.72703C5.08886 6.68503 5.04687 6.65003 5.00487 6.60804C5.09586 6.60804 5.18686 6.60804 5.27785 6.60804C5.29885 6.64303 5.31984 6.67803 5.34784 6.71303C5.36884 6.74102 5.38984 6.77602 5.40384 6.80402C5.41084 6.81102 5.41084 6.81802 5.41783 6.82502C5.35484 6.83202 5.29185 6.83902 5.24285 6.82502ZM6.31375 5.00518C6.25076 5.29216 6.20176 5.59313 6.12477 5.8801C6.04078 6.20907 5.73281 6.44005 5.39684 6.44705C5.36884 6.44705 5.34084 6.44705 5.31284 6.44705C5.22185 6.44005 5.13086 6.44705 5.03987 6.44705C4.94888 6.44705 4.85789 6.44705 4.76689 6.44705C4.7039 6.44705 4.64091 6.44705 4.57791 6.44705C4.08796 6.44705 3.591 6.44705 3.10105 6.44705C3.05205 6.44705 3.00306 6.44705 2.95406 6.44705C2.86307 6.44705 2.77208 6.44705 2.68108 6.44705C2.59009 6.44705 2.4991 6.44005 2.40811 6.44705H2.40111C2.34512 6.44705 2.28912 6.44005 2.24013 6.43305C1.93215 6.37006 1.70817 6.13908 1.63818 5.83811C1.60318 5.69112 1.57519 5.54413 1.54719 5.40415C1.49819 5.15917 1.4422 4.92119 1.3932 4.67621C1.3652 4.53623 1.33721 4.39624 1.30921 4.26325C1.35821 4.26325 1.4142 4.26325 1.4632 4.26325C1.55419 4.26325 1.64518 4.26325 1.73617 4.26325C2.12814 4.26325 2.5271 4.26325 2.91906 4.26325C2.95406 4.26325 2.98906 4.26325 3.01705 4.26325C3.53501 4.26325 4.04596 4.26325 4.56391 4.26325C4.61291 4.26325 4.6619 4.26325 4.7109 4.26325C5.10986 4.26325 5.50883 4.26325 5.90779 4.26325C6.00578 4.26325 6.11077 4.26325 6.20876 4.26325C6.25776 4.26325 6.29975 4.26325 6.34875 4.26325C6.38375 4.26325 6.42574 4.26325 6.46074 4.27025C6.41874 4.50123 6.36975 4.75321 6.31375 5.00518ZM6.80371 4.08127C6.79671 4.08127 6.79671 4.08127 6.78971 4.08127C6.76171 4.08127 6.73371 4.08127 6.70572 4.08127C6.66372 4.08127 6.62172 4.08127 6.57973 4.08127C6.49574 4.08127 6.41174 4.08127 6.32775 4.08127C6.23676 4.08127 6.13877 4.08127 6.04778 4.08127C5.68381 4.08127 5.31284 4.08127 4.94888 4.08127C4.88588 4.08127 4.82989 4.08127 4.76689 4.08127C4.25594 4.08127 3.74499 4.08127 3.23403 4.08127H3.22703C2.77908 4.08127 2.33112 4.08127 1.88316 4.08127C1.66618 4.08127 1.4492 4.07427 1.23222 4.08127H1.22522C1.14822 4.08127 1.06423 4.08827 0.98724 4.08127C0.903247 4.07427 0.882249 3.96928 0.98024 3.95528C0.994239 3.95528 1.00824 3.95528 1.02224 3.95528C1.06423 3.95528 1.09923 3.95528 1.14123 3.95528C1.20422 3.95528 1.27421 3.95528 1.33721 3.95528C1.3722 3.95528 1.4072 3.95528 1.4352 3.95528C1.83416 3.95528 2.23313 3.95528 2.63209 3.95528C3.20604 3.95528 3.77298 3.95528 4.34693 3.95528C4.86489 3.95528 5.38984 3.95528 5.90779 3.95528C6.19476 3.95528 6.48174 3.95528 6.76871 3.95528C6.78271 3.95528 6.79671 3.95528 6.81071 3.95528C6.8877 3.96228 6.8877 4.07427 6.80371 4.08127Z"
        fill="white" stroke="#383838" stroke-width="0.25" />
</svg>