<svg width="22" height="22" viewBox="0 0 22 22" fill="none" xmlns="http://www.w3.org/2000/svg">
    <path
        d="M11 7.25C8.92893 7.25 7.25 8.92893 7.25 11C7.25 13.0711 8.92893 14.75 11 14.75C13.0711 14.75 14.75 13.0711 14.75 11C14.75 8.92893 13.0711 7.25 11 7.25Z"
        fill="#03346E" />
    <path fill-rule="evenodd" clip-rule="evenodd"
        d="M11 0.25C11.4142 0.25 11.75 0.585786 11.75 1V2.28169C15.9842 2.64113 19.3589 6.01581 19.7183 10.25H21C21.4142 10.25 21.75 10.5858 21.75 11C21.75 11.4142 21.4142 11.75 21 11.75H19.7183C19.3589 15.9842 15.9842 19.3589 11.75 19.7183V21C11.75 21.4142 11.4142 21.75 11 21.75C10.5858 21.75 10.25 21.4142 10.25 21V19.7183C6.01581 19.3589 2.64113 15.9842 2.28169 11.75H1C0.585786 11.75 0.25 11.4142 0.25 11C0.25 10.5858 0.585786 10.25 1 10.25H2.28169C2.64113 6.01581 6.01581 2.64113 10.25 2.28169V1C10.25 0.585786 10.5858 0.25 11 0.25ZM3.75 11C3.75 15.0041 6.99594 18.25 11 18.25C15.0041 18.25 18.25 15.0041 18.25 11C18.25 6.99594 15.0041 3.75 11 3.75C6.99594 3.75 3.75 6.99594 3.75 11Z"
        fill="#03346E" />
</svg>