<svg width="19" height="18" viewBox="0 0 19 18" fill="none" xmlns="http://www.w3.org/2000/svg">
    <path
        d="M8.015 17.91C3.74 17.145 0.5 13.455 0.5 9C0.5 4.05 4.55 0 9.5 0C14.45 0 18.5 4.05 18.5 9C18.5 13.455 15.26 17.145 10.985 17.91L10.49 17.505H8.51L8.015 17.91Z"
        fill="url(#paint0_linear_1_2)" />
    <path
        d="M13.0101 11.5198L13.4151 8.99977H11.0301V7.24477C11.0301 6.52477 11.3001 5.98477 12.3801 5.98477H13.5501V3.68977C12.9201 3.59977 12.2001 3.50977 11.5701 3.50977C9.50006 3.50977 8.06006 4.76977 8.06006 7.01977V8.99977H5.81006V11.5198H8.06006V17.8648C8.55506 17.9548 9.05006 17.9998 9.54506 17.9998C10.0401 17.9998 10.5351 17.9548 11.0301 17.8648V11.5198H13.0101Z"
        fill="white" />
    <defs>
        <linearGradient id="paint0_linear_1_2" x1="9.50045" y1="17.374" x2="9.50045" y2="-0.0033155"
            gradientUnits="userSpaceOnUse">
            <stop stop-color="#0062E0" />
            <stop offset="1" stop-color="#19AFFF" />
        </linearGradient>
    </defs>
</svg>