<svg width="19" height="18" viewBox="0 0 19 18" fill="none" xmlns="http://www.w3.org/2000/svg">
<path d="M17.3759 9.17493C17.3759 8.52743 17.3223 8.05493 17.2063 7.56494H9.66162V10.4874H14.0902C14.0009 11.2137 13.5188 12.3074 12.4473 13.0424L12.4323 13.1402L14.8178 14.9513L14.983 14.9674C16.5009 13.5937 17.3759 11.5724 17.3759 9.17493Z" fill="#4285F4"/>
<path d="M9.66098 16.8752C11.8306 16.8752 13.652 16.1751 14.9824 14.9677L12.4467 13.0426C11.7681 13.5064 10.8574 13.8301 9.66098 13.8301C7.53601 13.8301 5.73246 12.4564 5.08954 10.5576L4.9953 10.5655L2.51486 12.4467L2.48242 12.5351C3.80383 15.1076 6.51811 16.8752 9.66098 16.8752Z" fill="#34A853"/>
<path d="M5.08998 10.5576C4.92034 10.0676 4.82216 9.54257 4.82216 9.0001C4.82216 8.45756 4.92034 7.93258 5.08106 7.44259L5.07656 7.33823L2.56503 5.42676L2.48285 5.46506C1.93824 6.53258 1.62573 7.73135 1.62573 9.0001C1.62573 10.2688 1.93824 11.4676 2.48285 12.5351L5.08998 10.5576Z" fill="#FBBC05"/>
<path d="M9.66103 4.16998C11.1699 4.16998 12.1878 4.80873 12.7682 5.34251L15.036 3.1725C13.6432 1.90375 11.8306 1.125 9.66103 1.125C6.51814 1.125 3.80384 2.89249 2.48242 5.46497L5.08063 7.44249C5.73248 5.54375 7.53604 4.16998 9.66103 4.16998Z" fill="#EB4335"/>
</svg>
