<svg width="20" height="20" viewBox="0 0 20 20" fill="none" xmlns="http://www.w3.org/2000/svg">
<path d="M1 10.1301V12.6C1 14.8402 1 15.9603 1.43597 16.816C1.81947 17.5686 2.43139 18.1805 3.18404 18.564C4.03969 19 5.15979 19 7.4 19H12.6C14.8402 19 15.9603 19 16.816 18.564C17.5686 18.1805 18.1805 17.5686 18.564 16.816C19 15.9603 19 14.8402 19 12.6V10.1301C19 8.98142 19 8.40707 18.8519 7.87813C18.7208 7.4096 18.5053 6.96892 18.2159 6.57774C17.8893 6.13614 17.436 5.78352 16.5292 5.07828L13.9292 3.05606C12.5239 1.96305 11.8213 1.41654 11.0454 1.20647C10.3608 1.02111 9.63921 1.02111 8.95461 1.20647C8.17873 1.41654 7.47608 1.96305 6.07078 3.05606L3.47078 5.07828C2.56404 5.78352 2.11067 6.13614 1.78405 6.57774C1.49473 6.96892 1.2792 7.4096 1.14805 7.87813C1 8.40707 1 8.98142 1 10.1301Z" fill="#DBDBDB"/>
<path d="M7 15H13M1 12.6V10.1301C1 8.98142 1 8.40707 1.14805 7.87813C1.2792 7.4096 1.49473 6.96892 1.78405 6.57774C2.11067 6.13614 2.56404 5.78352 3.47078 5.07828L6.07078 3.05606C7.47608 1.96305 8.17873 1.41654 8.95461 1.20647C9.63921 1.02111 10.3608 1.02111 11.0454 1.20647C11.8213 1.41654 12.5239 1.96305 13.9292 3.05606L16.5292 5.07828C17.436 5.78352 17.8893 6.13614 18.2159 6.57774C18.5053 6.96892 18.7208 7.4096 18.8519 7.87813C19 8.40707 19 8.98142 19 10.1301V12.6C19 14.8402 19 15.9603 18.564 16.816C18.1805 17.5686 17.5686 18.1805 16.816 18.564C15.9603 19 14.8402 19 12.6 19H7.4C5.15979 19 4.03969 19 3.18404 18.564C2.43139 18.1805 1.81947 17.5686 1.43597 16.816C1 15.9603 1 14.8402 1 12.6Z" stroke="#03346E" stroke-width="1.5" stroke-linecap="round" stroke-linejoin="round"/>
</svg>
