<svg width="18" height="14" viewBox="0 0 18 14" fill="none" xmlns="http://www.w3.org/2000/svg">
<path d="M16.9332 6.67993C15.3178 2.92924 12.2789 0.602051 9 0.602051C5.72114 0.602051 2.6822 2.92924 1.06676 6.67993C1.02273 6.78083 1 6.88973 1 6.99982C1 7.10991 1.02273 7.21881 1.06676 7.31971C2.6822 11.0704 5.72114 13.3976 9 13.3976C12.2789 13.3976 15.3178 11.0704 16.9332 7.31971C16.9773 7.21881 17 7.10991 17 6.99982C17 6.88973 16.9773 6.78083 16.9332 6.67993ZM9 11.7981C6.45689 11.7981 4.06572 9.96679 2.6822 6.99982C4.06572 4.03286 6.45689 2.20149 9 2.20149C11.5431 2.20149 13.9343 4.03286 15.3178 6.99982C13.9343 9.96679 11.5431 11.7981 9 11.7981ZM9 3.80094C8.36732 3.80094 7.74885 3.98855 7.22279 4.34005C6.69674 4.69154 6.28673 5.19114 6.04461 5.77566C5.8025 6.36018 5.73915 7.00337 5.86258 7.62389C5.98601 8.24442 6.29067 8.8144 6.73805 9.26178C7.18542 9.70915 7.75541 10.0138 8.37593 10.1372C8.99645 10.2607 9.63964 10.1973 10.2242 9.95521C10.8087 9.71309 11.3083 9.30308 11.6598 8.77703C12.0113 8.25097 12.1989 7.6325 12.1989 6.99982C12.1989 6.15142 11.8619 5.33777 11.262 4.73787C10.662 4.13796 9.8484 3.80094 9 3.80094ZM9 8.59926C8.68366 8.59926 8.37442 8.50546 8.1114 8.32971C7.84837 8.15396 7.64337 7.90416 7.52231 7.6119C7.40125 7.31964 7.36958 6.99805 7.43129 6.68779C7.493 6.37752 7.64534 6.09253 7.86902 5.86884C8.09271 5.64516 8.3777 5.49283 8.68796 5.43111C8.99823 5.3694 9.31982 5.40107 9.61208 5.52213C9.90434 5.64319 10.1541 5.84819 10.3299 6.11122C10.5056 6.37425 10.5994 6.68348 10.5994 6.99982C10.5994 7.42402 10.4309 7.83084 10.131 8.1308C9.83102 8.43075 9.4242 8.59926 9 8.59926Z" fill="#656565" stroke="white" stroke-width="0.5"/>
<path d="M3.44775 2.15283L13.7957 12.5976" stroke="#656565" stroke-width="1.5" stroke-linecap="round"/>
</svg>
